<?xml version="1.0" encoding="utf-8"?>
<!-- Svg Vector Icons : http://www.onlinewebfonts.com/icon -->
<!DOCTYPE svg PUBLIC "-//W3C//DTD SVG 1.1//EN" "http://www.w3.org/Graphics/SVG/1.1/DTD/svg11.dtd">
<svg version="1.1" xmlns="http://www.w3.org/2000/svg" xmlns:xlink="http://www.w3.org/1999/xlink" x="0px" y="0px" viewBox="0 0 1000 1000" enable-background="new 0 0 1000 1000" xml:space="preserve">
<metadata> Svg Vector Icons : http://www.onlinewebfonts.com/icon </metadata>
<g><path d="M990,196.6c-38.6,16.6-77.1,26.9-115.7,31.1c43.5-26.1,73-63,88.3-110.7c-39.8,23.6-82.3,39.8-127.5,48.5c-39.8-42.3-88.7-63.4-146.8-63.4c-55.5,0-102.9,19.6-142.1,58.8c-39.2,39.2-58.8,86.5-58.8,142.1c0,14.9,1.7,30.3,5,46c-82.1-4.1-159.1-24.8-231-61.9c-71.9-37.1-133-86.5-183.1-148.3C60.2,169.8,51,203.6,51,240.1c0,34.4,8.1,66.3,24.3,95.8c16.2,29.4,37.9,53.3,65.3,71.5c-32.3-1.2-62.6-9.7-90.8-25.5v2.5c0,48.5,15.2,91.1,45.7,127.8c30.5,36.7,68.9,59.8,115.3,69.3c-17.4,4.6-35,6.8-52.9,6.8c-11.6,0-24.3-1-37.9-3.1c12.9,40.2,36.5,73.3,70.9,99.2c34.4,25.9,73.4,39.3,116.9,40.1c-73,57.2-156.1,85.8-249.3,85.8c-17.8,0-34-0.8-48.5-2.5c93.3,60.1,196.1,90.2,308.4,90.2c71.3,0,138.3-11.3,200.8-33.9c62.6-22.6,116.1-52.9,160.4-90.8c44.4-37.9,82.6-81.6,114.7-130.9c32.1-49.3,56.1-100.8,71.8-154.5c15.8-53.7,23.6-107.5,23.6-161.4c0-11.6-0.2-20.3-0.6-26.1C928.6,271.8,962.2,237.2,990,196.6z"/></g>
</svg>