<?xml version="1.0" encoding="utf-8"?>
<!-- Svg Vector Icons : http://www.onlinewebfonts.com/icon -->
<!DOCTYPE svg PUBLIC "-//W3C//DTD SVG 1.1//EN" "http://www.w3.org/Graphics/SVG/1.1/DTD/svg11.dtd">
<svg version="1.1" xmlns="http://www.w3.org/2000/svg" xmlns:xlink="http://www.w3.org/1999/xlink" x="0px" y="0px" viewBox="0 0 1000 1000" enable-background="new 0 0 1000 1000" xml:space="preserve">
<metadata> Svg Vector Icons : http://www.onlinewebfonts.com/icon </metadata>
<g><g transform="translate(0.000000,464.000000) scale(0.100000,-0.100000)"><path d="M664.7,3159.4c-113.3-26-176.1-55.1-269.6-125.6C239,2915.8,144,2764.2,113.4,2581.9C101.1,2513,98,1641.6,101.1-418.4c4.6-2845.6,4.6-2903.8,35.2-2986.5c68.9-193,242-370.6,431.9-445.7c76.6-29.1,125.6-35.2,353.8-41.3l263.4-6.1v2628.1c0,1445.8,4.6,2628.2,9.2,2628.2c6.1,0,865.3-609.6,1908.3-1355.4l1899.1-1357L6895.1-1.8c1039.9,744.3,1897.6,1355.4,1905.3,1357c6.1,3.1,12.2-1176.2,12.2-2622V-3895h234.3c248.1,0,335.4,15.3,464.1,78.1c173.1,85.8,332.3,294.1,372.2,485.5c12.2,58.2,16.8,915.9,16.8,2978.9c0,2554.6-3.1,2910-23,2989.6c-72,271.1-295.6,477.8-575.9,529.9c-82.7,15.3-107.2,13.8-140.9-3.1c-21.4-12.2-963.3-684.6-2092.1-1494.8C5939.4,857.4,5008.2,194.3,5000.6,194.3c-9.2,0-931.2,655.5-2049.2,1458c-1119.6,802.5-2056.9,1473.4-2086,1493.3C807.2,3185.4,785.7,3186.9,664.7,3159.4z"/></g></g>
</svg>