<?xml version="1.0" encoding="utf-8"?>
<!-- Svg Vector Icons : http://www.onlinewebfonts.com/icon -->
<!DOCTYPE svg PUBLIC "-//W3C//DTD SVG 1.1//EN" "http://www.w3.org/Graphics/SVG/1.1/DTD/svg11.dtd">
<svg version="1.1" fill='#9f9f9f' xmlns="http://www.w3.org/2000/svg" xmlns:xlink="http://www.w3.org/1999/xlink" x="0px" y="0px" viewBox="0 0 1000 1000" enable-background="new 0 0 1000 1000" xml:space="preserve">
<metadata> Svg Vector Icons : http://www.onlinewebfonts.com/icon </metadata>
<g><g><g><path d="M609.5,479.4l376.6-188.2c-14-58.8-66.8-103-129.7-103H143.7c-62.9,0-115.8,44.2-129.7,103l376.5,188.2C447.1,507.8,552.9,507.8,609.5,479.4z"/><path d="M629.5,519.3c-34.8,17.4-80.8,27-129.5,27c-48.7,0-94.7-9.6-129.5-27l-104.1-52.1L10,595.4v82.8c0,73.5,60.1,133.6,133.6,133.6h712.7c73.5,0,133.6-60.1,133.6-133.6v-82.8L733.6,467.3L629.5,519.3z"/><polygon points="783.4,442.4 990,545.6 990,339.1 "/><polygon points="10,339 10,545.6 216.6,442.4 "/></g></g><g></g><g></g><g></g><g></g><g></g><g></g><g></g><g></g><g></g><g></g><g></g><g></g><g></g><g></g><g></g></g>
</svg>