<?xml version="1.0" encoding="utf-8"?>
<!-- Svg Vector Icons : http://www.onlinewebfonts.com/icon -->
<!DOCTYPE svg PUBLIC "-//W3C//DTD SVG 1.1//EN" "http://www.w3.org/Graphics/SVG/1.1/DTD/svg11.dtd">
<svg version="1.1" xmlns="http://www.w3.org/2000/svg" xmlns:xlink="http://www.w3.org/1999/xlink" x="0px" y="0px" viewBox="0 0 1000 1000" enable-background="new 0 0 1000 1000" xml:space="preserve">
<metadata> Svg Vector Icons : http://www.onlinewebfonts.com/icon </metadata>
<g><path d="M989.4,418c-0.4-19.7-1.9-44.6-4.6-74.6c-2.7-30.1-6.7-57-11.8-80.7c-5.8-26.6-18.5-49-38-67.3c-19.5-18.2-42.2-28.8-68.1-31.7C786,154.6,663.7,150,500,150s-286,4.6-366.9,13.7c-25.9,2.9-48.5,13.5-67.8,31.7c-19.3,18.2-31.9,40.6-37.7,67.3c-5.5,23.7-9.6,50.6-12.3,80.7c-2.7,30.1-4.3,55-4.6,74.6c-0.4,19.7-0.6,47-0.6,82c0,35,0.2,62.3,0.6,82c0.4,19.7,1.9,44.6,4.6,74.6c2.7,30.1,6.7,57,11.8,80.7c5.8,26.6,18.5,49,38,67.3s42.2,28.8,68.1,31.7C214,845.4,336.3,850,500,850c163.7,0,286-4.6,366.9-13.7c25.9-2.9,48.5-13.5,67.8-31.7c19.3-18.2,31.9-40.7,37.7-67.3c5.5-23.7,9.6-50.6,12.3-80.7c2.7-30.1,4.3-55,4.6-74.6c0.4-19.7,0.6-47,0.6-82C990,465,989.8,437.7,989.4,418z M693.6,529.5l-280,175c-5.1,3.6-11.3,5.5-18.6,5.5c-5.5,0-11.1-1.5-16.9-4.4c-12-6.6-18-16.8-18-30.6V325c0-13.8,6-24.1,18-30.6c12.4-6.6,24.2-6.2,35.5,1.1l280,175c10.9,6.2,16.4,16,16.4,29.5C710,513.5,704.5,523.3,693.6,529.5z"/></g>
</svg>